<svg xmlns="http://www.w3.org/2000/svg" viewBox="0 0 308.26 369.16"><defs><style>.fe68671e-fe80-4bc4-bfc4-f7e3e1e06565{fill:#f2f7f9;}.ab9aacbf-97bd-4d72-ad22-8066fc1374a4{fill:#311844;}.b487163a-3899-4298-b7d8-038bfc9a4174{fill:#dde2e5;}.a3151603-e2fb-4502-94e3-18cb2ff7c988{fill:#f0024a;}</style></defs><title>paper</title><g id="a184aa86-37cf-4996-8cc5-769a04a728bf" data-name="Layer 2"><g id="bbd46e1e-682e-4807-b0b3-c1548500cdfd" data-name="Icons"><path class="fe68671e-fe80-4bc4-bfc4-f7e3e1e06565" d="M283,0H121.85L0,121.86,121.85,96.77a25,25,0,0,1-7.3,17.68L26.27,203a12.6,12.6,0,0,1,8.31-3.12,11.86,11.86,0,1,1,0,23.7,12.14,12.14,0,0,1-12.4-11.85,11.44,11.44,0,0,1,3-7.65L0,229.38V345.05c0,13.26,11.35,24.11,25.22,24.11H283c13.88,0,25.23-10.85,25.23-24.11V24.11C308.26,10.86,296.9,0,283,0ZM34.58,342.15c-6.84,0-12.4-5.3-12.4-11.84a12.15,12.15,0,0,1,12.4-11.87,11.87,11.87,0,1,1,0,23.71Zm0-59.27c-6.84,0-12.4-5.3-12.4-11.84a12.14,12.14,0,0,1,12.4-11.86,11.86,11.86,0,1,1,0,23.7Z"/><rect class="ab9aacbf-97bd-4d72-ad22-8066fc1374a4" x="81.7" y="157.71" width="182.79" height="11.61"/><rect class="ab9aacbf-97bd-4d72-ad22-8066fc1374a4" x="81.7" y="206.07" width="182.79" height="11.61"/><rect class="ab9aacbf-97bd-4d72-ad22-8066fc1374a4" x="81.7" y="254.43" width="182.79" height="11.61"/><rect class="ab9aacbf-97bd-4d72-ad22-8066fc1374a4" x="81.7" y="302.79" width="182.79" height="11.61"/><rect class="ab9aacbf-97bd-4d72-ad22-8066fc1374a4" x="154.13" y="61" width="110.36" height="11.61"/><rect class="ab9aacbf-97bd-4d72-ad22-8066fc1374a4" x="154.13" y="109.36" width="110.36" height="11.61"/><path class="b487163a-3899-4298-b7d8-038bfc9a4174" d="M26.27,203l88.28-88.58a25,25,0,0,0,7.3-17.68L0,121.86V229.38l25.19-25.27A10,10,0,0,1,26.27,203Zm8.31-62.39a11.86,11.86,0,1,1,0,23.7,12.14,12.14,0,0,1-12.4-11.85C22.18,146,27.74,140.64,34.58,140.64Z"/><path class="a3151603-e2fb-4502-94e3-18cb2ff7c988" d="M121.85,0,0,121.86H96.77a25.08,25.08,0,0,0,25.08-25.09Z"/></g></g></svg>