<svg xmlns="http://www.w3.org/2000/svg" viewBox="0 0 330 346.84"><defs><style>.b5b528eb-18d0-4c5a-ad69-a90c52e6837b{fill:#311844;}</style></defs><title>rock</title><g id="acd90d8b-5b7b-4954-b728-03096e46ae33" data-name="Layer 2"><g id="a82625e7-a1a2-48b4-8255-27b39cda5c79" data-name="Icons"><path class="b5b528eb-18d0-4c5a-ad69-a90c52e6837b" d="M7.17,303.52c7.88,25.47,22.14,43.3,39.52,43.3H279.52c22.79,0,39.42-26.74,46.54-61.13,7.45-35.66,4.76-79.38-11.77-109.52-1.4-2.76-3-5.31-4.64-7.85L230.92,52.85C207.49,18.68,179.2,0,150,0c-15.88,0-31.43,5.52-46,15.92A109.46,109.46,0,0,0,86.87,30.78C67.64,50.73,50.8,80,38.27,116.31L8.14,203.55C-3.09,236-2,274.65,7.17,303.52Z"/><path class="b5b528eb-18d0-4c5a-ad69-a90c52e6837b" d="M7.17,303.52c7.88,25.47,22.14,43.3,39.52,43.3H72.83L63.22,181.26l38.9-89L104,15.92A109.46,109.46,0,0,0,86.87,30.78C67.64,50.73,50.8,80,38.27,116.31L8.14,203.55C-3.09,236-2,274.65,7.17,303.52Z"/><polygon class="b5b528eb-18d0-4c5a-ad69-a90c52e6837b" points="162.24 260.96 229.49 264.06 279.51 346.84 118.23 346.84 162.24 260.96"/><path class="b5b528eb-18d0-4c5a-ad69-a90c52e6837b" d="M118.23,346.84H46.69c-17.38,0-31.63-17.86-39.52-43.3L63.22,181.27l99,79.7Z"/><path class="b5b528eb-18d0-4c5a-ad69-a90c52e6837b" d="M229.49,264.06s69.79-72.4,84.8-87.89c16.53,30.14,19.22,73.86,11.77,109.52h0c-7.12,34.37-23.75,61.15-46.55,61.15"/></g></g></svg>