<svg xmlns="http://www.w3.org/2000/svg" viewBox="0 0 1360.1 369.16"><defs><style>.a4c2eab3-9426-4ed8-ace5-8ad182780d2e{fill:#e9eef1;}.ebeafbd0-e38d-45fe-9b46-a33ca5b8e39b{fill:#e9e92a;}.a1377f6f-a8f7-49f7-99f4-4f935813d7a3{fill:#dde2e5;}.f7c3a99f-47ae-4584-acc4-a8d992e453fe{fill:#f2f7f9;}.f762fe5a-547f-41a5-8718-a8bf2584cb43{fill:#311844;}.b765474f-fcb5-4652-8675-175693d6fa73{fill:#f0024a;}</style></defs><title>RPS</title><g id="ac5cfcb5-b405-4c8b-a191-11419e4d7b3c" data-name="Icons"><g id="b0898080-6a68-465b-b00b-650d87c83855" data-name="scissor"><path class="a4c2eab3-9426-4ed8-ace5-8ad182780d2e" d="M1240.51,280.61c-4.3,11.87,43.14-41.57,30.83-35.19L1061,0a94.37,94.37,0,0,0,14.19,115.29Z"/><path class="ebeafbd0-e38d-45fe-9b46-a33ca5b8e39b" d="M1231.78,305a64.16,64.16,0,1,1,64.16,64.15A64.25,64.25,0,0,1,1231.78,305m28.41,0a35.75,35.75,0,1,0,35.75-35.76A35.79,35.79,0,0,0,1260.19,305"/><polygon class="a1377f6f-a8f7-49f7-99f4-4f935813d7a3" points="1218.6 183.88 1183.16 223.27 1216.95 257.07 1251.61 222.41 1218.6 183.88"/><path class="f7c3a99f-47ae-4584-acc4-a8d992e453fe" d="M1324.8,115.29A94.37,94.37,0,0,0,1339,0L1128.65,245.42c-12.31-6.38,35.11,47.06,30.83,35.19Z"/><path class="ebeafbd0-e38d-45fe-9b46-a33ca5b8e39b" d="M1104,240.84A64.24,64.24,0,0,0,1039.9,305c0,1.22,0,2.4.1,3.58a64.16,64.16,0,0,0,128.11,0c.07-1.18.11-2.36.11-3.58A64.24,64.24,0,0,0,1104,240.84Zm35.57,67.68v.15a35.76,35.76,0,0,1-71.15,0v-.15c-.1-1.14-.17-2.32-.17-3.5a35.75,35.75,0,0,1,71.5,0C1139.79,306.2,1139.72,307.38,1139.61,308.52Z"/><path class="f762fe5a-547f-41a5-8718-a8bf2584cb43" d="M1200,183.24a16,16,0,1,1-16,16,16,16,0,0,1,16-16"/></g><path class="f7c3a99f-47ae-4584-acc4-a8d992e453fe" d="M809.91,0H648.73L526.87,121.86,648.73,96.77a25,25,0,0,1-7.31,17.68L553.14,203a12.6,12.6,0,0,1,8.31-3.12c6.85,0,12.41,5.31,12.41,11.85s-5.56,11.85-12.41,11.85a12.13,12.13,0,0,1-12.39-11.85,11.48,11.48,0,0,1,3-7.65l-25.18,25.27V345.05c0,13.26,11.35,24.11,25.22,24.11H809.91c13.87,0,25.22-10.85,25.22-24.11V24.11C835.13,10.86,823.77,0,809.91,0ZM561.45,342.15a11.87,11.87,0,1,1,12.41-11.84C573.86,336.85,568.3,342.15,561.45,342.15Zm0-59.27A11.86,11.86,0,1,1,573.86,271C573.86,277.58,568.3,282.88,561.45,282.88Z"/><rect class="f762fe5a-547f-41a5-8718-a8bf2584cb43" x="608.57" y="157.71" width="182.79" height="11.61"/><rect class="f762fe5a-547f-41a5-8718-a8bf2584cb43" x="608.57" y="206.07" width="182.79" height="11.61"/><rect class="f762fe5a-547f-41a5-8718-a8bf2584cb43" x="608.57" y="254.43" width="182.79" height="11.61"/><rect class="f762fe5a-547f-41a5-8718-a8bf2584cb43" x="608.57" y="302.79" width="182.79" height="11.61"/><rect class="f762fe5a-547f-41a5-8718-a8bf2584cb43" x="681" y="61" width="110.36" height="11.61"/><rect class="f762fe5a-547f-41a5-8718-a8bf2584cb43" x="681" y="109.36" width="110.36" height="11.61"/><path class="a1377f6f-a8f7-49f7-99f4-4f935813d7a3" d="M553.14,203l88.28-88.58a25,25,0,0,0,7.31-17.68L526.87,121.86V229.38l25.18-25.27A10,10,0,0,1,553.14,203Zm8.31-62.39c6.85,0,12.41,5.31,12.41,11.85s-5.56,11.85-12.41,11.85a11.86,11.86,0,1,1,0-23.7Z"/><path class="b765474f-fcb5-4652-8675-175693d6fa73" d="M648.73,0,526.87,121.86h96.77a25.09,25.09,0,0,0,25.09-25.09Z"/><path class="f762fe5a-547f-41a5-8718-a8bf2584cb43" d="M7.17,314.68C15.05,340.15,29.31,358,46.69,358H279.52c22.79,0,39.42-26.74,46.54-61.13,7.45-35.65,4.76-79.38-11.77-109.52-1.4-2.76-3-5.3-4.64-7.85L230.92,64C207.49,29.84,179.2,11.16,150,11.16c-15.88,0-31.43,5.52-46,15.92A110,110,0,0,0,86.87,41.94c-19.23,20-36.07,49.24-48.6,85.54L8.14,214.71C-3.09,247.19-2,285.82,7.17,314.68Z"/><path class="f762fe5a-547f-41a5-8718-a8bf2584cb43" d="M7.17,314.68C15.05,340.15,29.31,358,46.69,358H72.83L63.22,192.43l38.9-89L104,27.08A110,110,0,0,0,86.87,41.94c-19.23,20-36.07,49.24-48.6,85.54L8.14,214.71C-3.09,247.19-2,285.82,7.17,314.68Z"/><polygon class="f762fe5a-547f-41a5-8718-a8bf2584cb43" points="162.24 272.13 229.49 275.22 279.51 358 118.23 358 162.24 272.13"/><path class="f762fe5a-547f-41a5-8718-a8bf2584cb43" d="M118.23,358H46.69c-17.38,0-31.63-17.85-39.52-43.3L63.22,192.44l99,79.69Z"/><path class="f762fe5a-547f-41a5-8718-a8bf2584cb43" d="M229.49,275.22s69.79-72.39,84.8-87.89c16.53,30.14,19.22,73.87,11.77,109.52h0C318.94,331.22,302.31,358,279.51,358"/></g></svg>