<?xml version="1.0" encoding="utf-8"?>
<!-- Generator: Adobe Illustrator 24.0.3, SVG Export Plug-In . SVG Version: 6.00 Build 0)  -->
<svg version="1.1" id="Layer_1" xmlns="http://www.w3.org/2000/svg" xmlns:xlink="http://www.w3.org/1999/xlink" x="0px" y="0px"
	 viewBox="0 0 320.2 369.2" style="enable-background:new 0 0 320.2 369.2;" xml:space="preserve">
<style type="text/css">
	.st0{fill:#D4D6D8;}
	.st1{fill:#E9E92A;}
	.st2{fill:#E9EEF1;}
	.st3{fill:#311844;}
</style>
<title>scissors</title>
<g id="a25660cc-5cbf-4461-9712-46d3f1f5b29a">
	<g id="fa82a390-2199-4275-9e96-8613f72512e3">
		<g id="b7c14d69-1b9d-4d86-b734-6286889a731e">
			<path class="st0" d="M200.6,280.6c-4.3,11.9,43.2-41.6,30.8-35.2L21.1,0C-1.2,37.1,4.7,84.7,35.3,115.3L200.6,280.6z"/>
			<path class="st1" d="M191.9,305c0-35.4,28.7-64.2,64.1-64.2s64.2,28.7,64.2,64.1s-28.7,64.2-64.1,64.2l0,0
				C220.6,369.1,191.9,340.4,191.9,305 M220.3,305c0,19.7,16,35.8,35.8,35.8s35.8-16,35.8-35.8s-16-35.8-35.8-35.8
				C236.3,269.3,220.3,285.3,220.3,305"/>
			<polygon class="st0" points="178.7,183.9 143.3,223.3 177.1,257.1 211.7,222.4 			"/>
			<path class="st2" d="M284.9,115.3C315.5,84.7,321.4,37.1,299.1,0L88.8,245.4c-12.3-6.4,35.1,47.1,30.8,35.2L284.9,115.3z"/>
			<path class="st1" d="M64.1,240.8C28.7,240.9,0,269.6,0,305c0,1.2,0,2.4,0.1,3.6C2.1,344,32.4,371,67.7,369
				c32.6-1.8,58.6-27.9,60.5-60.5c0.1-1.2,0.1-2.4,0.1-3.6C128.3,269.6,99.6,240.9,64.1,240.8z M99.7,308.5v0.1
				c-2,19.6-19.6,33.9-39.2,31.9c-16.9-1.7-30.2-15.1-31.9-31.9v-0.1c-0.1-1.1-0.2-2.3-0.2-3.5c0.3-19.7,16.6-35.5,36.4-35.2
				c19.3,0.3,34.8,15.9,35.2,35.2C99.9,306.2,99.8,307.4,99.7,308.5z"/>
			<path class="st3" d="M160.1,183.2c8.8,0,16,7.2,16,16s-7.2,16-16,16s-16-7.2-16-16S151.3,183.2,160.1,183.2"/>
		</g>
	</g>
</g>
</svg>
